<?xml version="1.0" standalone="no"?>
<!DOCTYPE svg PUBLIC "-//W3C//DTD SVG 20010904//EN"
 "http://www.w3.org/TR/2001/REC-SVG-20010904/DTD/svg10.dtd">
<svg version="1.0" xmlns="http://www.w3.org/2000/svg"
 width="834.000000pt" height="834.000000pt" viewBox="0 0 834.000000 834.000000"
 preserveAspectRatio="xMidYMid meet">
<metadata>
Created by potrace 1.14, written by Peter Selinger 2001-2017
</metadata>
<g transform="translate(0.000000,834.000000) scale(0.100000,-0.100000)"
fill="#000000" stroke="none">
<path d="M4495 8222 c-93 -9 -287 -47 -405 -78 -231 -62 -314 -84 -350 -94
-19 -5 -96 -26 -170 -46 -74 -19 -157 -41 -185 -49 -27 -7 -120 -32 -205 -55
-85 -23 -162 -44 -170 -46 -15 -3 -27 -7 -145 -38 -33 -9 -179 -48 -325 -87
-146 -39 -312 -85 -370 -101 -519 -148 -965 -474 -1271 -929 -32 -49 -59 -93
-59 -98 0 -5 -4 -11 -8 -13 -5 -1 -34 -54 -65 -115 -226 -443 -304 -944 -221
-1418 9 -49 17 -94 18 -100 1 -5 6 -26 10 -45 5 -19 37 -143 73 -275 36 -132
66 -247 68 -255 2 -8 13 -49 24 -90 12 -41 41 -154 67 -250 25 -96 61 -229 79
-295 18 -66 79 -293 136 -505 56 -212 111 -416 121 -455 11 -38 30 -110 43
-160 13 -49 31 -116 39 -147 9 -32 23 -84 31 -115 9 -32 27 -101 42 -153 28
-106 42 -156 48 -183 2 -10 14 -52 25 -95 12 -42 23 -81 24 -87 61 -259 202
-555 379 -794 132 -179 281 -329 461 -465 390 -294 870 -457 1356 -460 115 0
259 8 320 18 14 3 47 7 75 11 27 3 135 29 240 56 104 27 200 52 212 54 12 3
96 26 185 50 90 25 172 47 183 50 34 7 55 13 210 55 83 23 158 44 167 45 9 2
51 13 93 25 42 12 84 23 93 25 9 2 91 23 182 48 91 25 228 61 305 82 204 53
266 71 405 116 250 81 528 238 745 419 67 55 245 240 303 313 204 258 372 598
437 884 55 243 63 325 59 578 -2 127 -4 244 -5 260 -1 17 1 46 4 65 13 79 21
192 21 315 0 123 -10 300 -18 314 -2 3 -6 29 -10 56 -3 28 -8 61 -11 75 -4 14
-8 36 -11 50 -3 14 -7 33 -10 42 -3 9 -6 25 -8 35 -5 23 -63 241 -81 303 -7
25 -37 133 -65 240 -58 218 -95 358 -110 410 -6 19 -50 186 -99 370 -121 453
-128 478 -152 568 -21 75 -36 131 -43 162 -82 332 -292 713 -539 974 -21 23
-64 68 -96 101 -31 33 -86 96 -123 140 -59 72 -133 146 -244 245 -64 58 -259
197 -329 235 -11 6 -45 26 -77 43 -162 90 -453 196 -628 227 -201 37 -290 45
-472 43 -95 -2 -186 -4 -203 -6z"/>
</g>
</svg>
